<svg width="110" height="8" viewBox="0 0 110 8" fill="none" xmlns="http://www.w3.org/2000/svg">
<path id="Line 41" d="M1 3.5C0.723858 3.5 0.5 3.72386 0.5 4C0.5 4.27614 0.723858 4.5 1 4.5V3.5ZM109.354 4.35355C109.549 4.15829 109.549 3.84171 109.354 3.64645L106.172 0.464466C105.976 0.269204 105.66 0.269204 105.464 0.464466C105.269 0.659728 105.269 0.976311 105.464 1.17157L108.293 4L105.464 6.82843C105.269 7.02369 105.269 7.34027 105.464 7.53553C105.66 7.7308 105.976 7.7308 106.172 7.53553L109.354 4.35355ZM1 4.5H109V3.5H1V4.5Z" fill="#FCAF17"/>
</svg>
