<svg width="160" height="8" viewBox="0 0 160 8" fill="none" xmlns="http://www.w3.org/2000/svg">
<path id="Line 67" d="M1 3.5C0.723858 3.5 0.5 3.72386 0.5 4C0.5 4.27614 0.723858 4.5 1 4.5V3.5ZM159.354 4.35355C159.549 4.15829 159.549 3.84171 159.354 3.64645L156.172 0.464466C155.976 0.269204 155.66 0.269204 155.464 0.464466C155.269 0.659728 155.269 0.976311 155.464 1.17157L158.293 4L155.464 6.82843C155.269 7.02369 155.269 7.34027 155.464 7.53553C155.66 7.7308 155.976 7.7308 156.172 7.53553L159.354 4.35355ZM1 4.5H159V3.5H1V4.5Z" fill="#FCAF17"/>
</svg>
