<svg width="246" height="8" viewBox="0 0 246 8" fill="none" xmlns="http://www.w3.org/2000/svg">
<path id="Line 42" d="M1 3.5C0.723858 3.5 0.5 3.72386 0.5 4C0.5 4.27614 0.723858 4.5 1 4.5V3.5ZM245.354 4.35355C245.549 4.15829 245.549 3.84171 245.354 3.64645L242.172 0.464466C241.976 0.269204 241.66 0.269204 241.464 0.464466C241.269 0.659728 241.269 0.976311 241.464 1.17157L244.293 4L241.464 6.82843C241.269 7.02369 241.269 7.34027 241.464 7.53553C241.66 7.7308 241.976 7.7308 242.172 7.53553L245.354 4.35355ZM1 4.5H245V3.5H1V4.5Z" fill="#FCAF17"/>
</svg>
